{"title":"The Loft 2015 720p HDCAM ENG FIRST x264 Pimp4003","uid":11688235,"size":1845087178,"categoryP":"video","categoryS":"movies","magnet":"?xt=urn:btih:a91b7f44b09e85728ae4181e5166cba187a9de8d&amp;dn=The+Loft+2015+720p+HDCAM+ENG+FIRST+x264+Pimp4003&amp;tr=udp%3A%2F%2Ftracker.openbittorrent.com%3A80&amp;tr=udp%3A%2F%2Fopen.demonii.com%3A1337&amp;tr=udp%3A%2F%2Ftracker.coppersurfer.tk%3A6969&amp;tr=udp%3A%2F%2Fexodus.desync.com%3A6969","seeders":24,"leechers":0,"uploader":"shawnmurthy","files":1,"time":1423400691,"description":"SOURCE IS SPECTRE....VERY GOOD FOR THE FIRST HDCAM....VIDEO HAD SOME FLICKERING FIXED THAT AND ALSO ADJUST CONTRAST...ALSO DID WORK ON THE BRIGHTNESS IN THE DARK SCENES...AUDIO WAS A LITTLE HOLLOW FIXED THAT HAS WELL....ENJOY...PIMP4003\n\nSCREENSHOTS GO HERE...pimp4003 dot net/torrents.php?id=a91b7f44b09e85728ae4181e5166cba187a9de8d\n &lt;a href=&quot;\nhttp://i.imgur.com/J3ny9bJ.jpg&quot; rel=&quot;nofollow&quot; target=&quot;_NEW&quot;&gt;\nhttp://i.imgur.com/J3ny9bJ.jpg&lt;/a&gt;\n &lt;a href=&quot;\nhttp://i.imgur.com/SpsuXOR.png&quot; rel=&quot;nofollow&quot; target=&quot;_NEW&quot;&gt;\nhttp://i.imgur.com/SpsuXOR.png&lt;/a&gt;\n\nPIMP THE ONE AND ONLY PIMPSTER.....PRESENTS\n\nfacebook dot com/OfficialPimp4003\n &lt;a href=&quot;\nhttp://i.imgur.com/MkexGJp.jpg&quot; rel=&quot;nofollow&quot; target=&quot;_NEW&quot;&gt;\nhttp://i.imgur.com/MkexGJp.jpg&lt;/a&gt;\n\nThe Loft 2015 720p HDCAM ENG FIRST x264 Pimp4003\n &lt;a href=&quot;\nhttp://www.imdb.com/title/tt1850397/&quot; rel=&quot;nofollow&quot; target=&quot;_NEW&quot;&gt;\nhttp://www.imdb.com/title/tt1850397/&lt;/a&gt;\n\nFive married guys conspire to secretly share a penthouse loft in the city--a place where they can carry out hidden affairs and indulge in their deepest fantasies. But the fantasy becomes a nightmare when they discover the dead body of an unknown woman in the loft, and they realize one of the group must be involved.\n\nDirector: Erik Van Looy\n\nWriters: Bart De Pauw (screenplay), Wesley Strick(screenplay)\n\nStars: Karl Urban, James Marsden, Wentworth Miller |See full cast and crew Â»\n\nVideo\n\nID : 1\n\nFormat : MPEG-4 Visual\n\nFormat profile : Simple@L3\n\nFormat settings, BVOP : No\n\nFormat settings, QPel : No\n\nFormat settings, GMC : No warppoints\n\nFormat settings, Matrix : Default (H.263)\n\nCodec ID : 20\n\nDuration : 1h 37mn\n\nBit rate : 2 389 Kbps\n\nWidth : 1 280 pixels\n\nHeight : 536 pixels\n\nDisplay aspect ratio : 2.40:1\n\nFrame rate mode : Variable\n\nFrame rate : 59.940 fps\n\nMinimum frame rate : 59.916 fps\n\nMaximum frame rate : 60.157 fps\n\nColor space : YUV\n\nChroma subsampling : 4:2:0\n\nBit depth : 8 bits\n\nScan type : Progressive\n\nCompression mode : Lossy\n\nBits/(Pixel*Frame) : 0.058\n\nStream size : 1.63 GiB (95%)\n\nWriting library : ZJMedia MPEG Encoder\n\nAudio\n\nID : 2\n\nFormat : AAC\n\nFormat/Info : Advanced Audio Codec\n\nFormat profile : LC\n\nCodec ID : 40\n\nDuration : 1h 37mn\n\nBit rate mode : Variable\n\nBit rate : 128 Kbps\n\nChannel(s) : 2 channels\n\nChannel positions : Front: L R\n\nSampling rate : 48.0 KHz\n\nCompression mode : Lossy\n\nStream size : 89.2 MiB (5%)","torrent":{"xt":"urn:btih:a91b7f44b09e85728ae4181e5166cba187a9de8d","amp;dn":"The+Loft+2015+720p+HDCAM+ENG+FIRST+x264+Pimp4003","amp;tr":["udp%3A%2F%2Ftracker.openbittorrent.com%3A80","udp%3A%2F%2Fopen.demonii.com%3A1337","udp%3A%2F%2Ftracker.coppersurfer.tk%3A6969","udp%3A%2F%2Fexodus.desync.com%3A6969"],"infoHash":"a91b7f44b09e85728ae4181e5166cba187a9de8d","infoHashBuffer":{"type":"Buffer","data":[169,27,127,68,176,158,133,114,138,228,24,30,81,102,203,161,135,169,222,141]},"announce":[],"urlList":[]}}